<svg width="195" height="32" viewBox="0 0 195 32" fill="none" xmlns="http://www.w3.org/2000/svg">
<path d="M13.6709 27.3614C21.2212 27.3614 27.3418 21.2407 27.3418 13.6904C27.3418 6.14021 21.2212 0.0195312 13.6709 0.0195312C6.12068 0.0195312 0 6.14021 0 13.6904C0 21.2407 6.12068 27.3614 13.6709 27.3614Z" fill="#BF6517"/>
<path d="M71.1221 27.3614C78.6723 27.3614 84.793 21.2407 84.793 13.6904C84.793 6.14021 78.6723 0.0195312 71.1221 0.0195312C63.5718 0.0195312 57.4512 6.14021 57.4512 13.6904C57.4512 21.2407 63.5718 27.3614 71.1221 27.3614Z" fill="#FFAA00"/>
<path d="M42.9607 27.0146C44.8992 25.4619 49.8293 15.7376 49.8293 15.7376C52.2296 10.7094 53.9531 6.21255 54.3484 3.97359C54.3389 4.02735 54.4338 3.62257 54.3326 3.18933C54.3262 3.15138 54.3167 3.11659 54.3073 3.08497C54.3073 3.08497 54.3041 3.08497 54.3041 3.07864C54.3009 3.06599 54.2978 3.05651 54.2946 3.04702C54.2883 3.03437 54.2851 3.02488 54.2788 3.0154C54.2756 3.00275 54.2693 2.9901 54.263 2.97745C54.2598 2.9648 54.2535 2.95531 54.2503 2.94899C54.2503 2.94582 54.2503 2.94266 54.244 2.9395C54.225 2.89206 54.2029 2.85095 54.1776 2.80984H54.1744C54.0922 2.66753 53.9847 2.54104 53.8519 2.43668C53.7538 2.35762 53.6495 2.28173 53.5451 2.21215C53.3807 2.10147 53.2068 2.00344 53.0328 1.9054C52.1315 1.38045 51.1639 0.944045 50.1234 0.624645C42.733 -1.65226 34.8966 2.49044 32.6166 9.8809C30.5389 16.6231 33.8088 23.7384 40.0134 26.6573C40.1114 26.7047 40.2126 26.7521 40.3201 26.8027C40.3296 26.8059 40.3359 26.8091 40.3422 26.8122C40.4845 26.8755 40.6269 26.9355 40.7692 26.9956C40.9368 27.062 41.1075 27.1253 41.2815 27.1885C41.3574 27.2138 41.4333 27.2391 41.5123 27.2644C41.5819 27.2834 41.6546 27.3055 41.7242 27.3245C41.8033 27.3467 41.9582 27.3656 42.0151 27.3656C42.0499 27.3656 42.0942 27.3656 42.1543 27.3593C42.1891 27.3561 42.2239 27.353 42.2555 27.3467C42.2966 27.3372 42.344 27.3277 42.3915 27.315C42.4357 27.3024 42.4832 27.2866 42.5306 27.2708C42.5875 27.2455 42.6508 27.2202 42.714 27.1854C42.7836 27.1474 42.8532 27.1032 42.9164 27.0526C42.9164 27.0526 42.9196 27.0526 42.9259 27.0462C42.9322 27.0462 42.9385 27.0367 42.948 27.0273C42.948 27.0273 42.9512 27.0241 42.9512 27.0209C42.9512 27.0209 42.9575 27.0146 42.9607 27.0114C42.9607 27.0114 42.9575 27.0146 42.9544 27.0178L42.9607 27.0114V27.0146Z" fill="url(#paint0_linear_237_320)"/>
<path d="M42.8984 27.0656L42.9048 27.0593C42.9364 27.0371 42.968 27.0087 42.9965 26.9834C44.954 25.3547 49.8304 15.7348 49.8304 15.7348C52.1863 10.8047 53.8877 6.3837 54.3241 4.10363C54.3272 4.10047 54.3272 4.09414 54.3272 4.09098C54.3367 4.04987 54.343 4.00876 54.3494 3.97081C54.3494 3.96449 54.3525 3.95816 54.3525 3.94868C54.362 3.89492 54.3715 3.84115 54.3747 3.78739C54.3778 3.74312 54.381 3.70517 54.381 3.66406C54.3715 3.67355 54.3652 3.68304 54.3557 3.69252C54.3557 3.69252 53.7738 4.41987 53.7707 4.41987C53.4734 4.77405 53.2489 4.99858 52.9579 5.2579C52.9168 5.29584 52.8725 5.33696 52.8314 5.37174C52.8283 5.37807 52.8219 5.38123 52.8156 5.38439C52.3223 5.82396 51.7879 6.21609 51.225 6.56395C50.9593 6.7284 50.6874 6.88335 50.4122 7.03198C49.3022 7.62967 48.1322 8.12616 47.0696 8.80924C46.9399 8.89146 46.8166 8.97684 46.6964 9.06855C46.6395 9.10966 46.5794 9.15077 46.5225 9.19504C45.3145 10.1311 44.4859 11.3581 43.9041 12.8033C42.8194 15.4882 43.4961 17.8663 43.6795 20.7914C43.7713 22.2714 43.7396 23.8874 43.2874 25.7532C43.2716 25.8038 43.2495 25.886 43.2178 25.9777C43.2178 25.9841 43.2147 25.9904 43.2115 25.9967L42.8984 27.0656Z" fill="url(#paint1_linear_237_320)"/>
<path d="M104.806 1.23047V10.4424H104.737C103.747 8.73477 101.805 7.74495 99.6546 7.74495C95.2557 7.74495 92.457 11.3279 92.457 16.8526C92.457 22.3772 95.2873 25.9286 99.6894 25.9286C101.871 25.9286 103.816 24.904 104.841 23.1299H104.907V25.5175H108.696V1.23047H104.806ZM100.815 22.9243C98.1872 22.9243 96.5175 20.5367 96.5175 16.8526C96.5175 13.1684 98.1872 10.7808 100.815 10.7808C103.443 10.7808 105.012 13.0672 105.012 16.8526C105.012 20.6379 103.339 22.9243 100.815 22.9243Z" fill="white"/>
<path d="M120.304 7.77973C118.359 7.77973 116.55 8.564 115.323 10.2369H115.254V1.23047H111.367V25.5175H115.254V15.8975C115.254 12.5897 116.993 10.92 119.213 10.92C121.433 10.92 122.726 12.147 122.726 15.2524V25.5175H126.613V14.9109C126.613 10.1673 124.225 7.77973 120.304 7.77973Z" fill="white"/>
<path d="M133.069 8.19141H129.18V25.5212H133.069V8.19141Z" fill="white"/>
<path d="M158.267 8.19141L154.959 15.1486C153.732 17.6722 152.572 20.3001 151.547 22.8237H151.481C151.582 20.3001 151.617 17.8113 151.582 15.2846L151.617 8.19141H146.158L142.645 15.2846C141.418 17.8113 140.257 20.3001 139.166 22.8237H139.1C139.201 20.3001 139.268 17.6722 139.337 15.1486L139.508 8.19141H135.789L135.723 25.518H141.282L144.83 18.3553C146.057 15.8981 147.218 13.4093 148.309 10.8857H148.375C148.309 13.4093 148.274 15.8981 148.274 18.3553L148.239 25.518H153.802L162.328 8.19141H158.267Z" fill="white"/>
<path d="M176.762 20.949V14.4661C176.762 9.93129 174.203 7.67969 169.631 7.67969C165.058 7.67969 162.572 10.2728 162.401 13.5459H166.222C166.323 11.7054 167.483 10.51 169.631 10.51C171.61 10.51 173.008 11.5346 173.008 14.093V14.776C171.781 14.8425 169.735 15.048 168.337 15.2852C163.356 16.0695 161.684 17.9131 161.684 20.7434C161.684 23.7129 163.935 25.8949 167.55 25.8949C170.178 25.8949 172.123 24.9399 173.384 23.0962H173.451C173.451 23.9153 173.52 24.7691 173.691 25.5186H177.204C176.933 24.4276 176.762 22.995 176.762 20.949ZM173.008 18.1503C173.008 19.9939 172.736 20.9142 171.816 21.8692C171.032 22.6535 169.871 23.0298 168.676 23.0298C166.699 23.0298 165.608 22.0052 165.608 20.4715C165.608 18.9377 166.528 18.1503 169.017 17.7423C170.178 17.5368 171.851 17.366 173.008 17.2996V18.1503Z" fill="white"/>
<path d="M190.574 8.19141L186.105 21.0844H186.036L181.703 8.19141H177.545L183.889 25.654C183.07 28.0448 182.149 28.829 180.034 28.829C179.42 28.829 178.838 28.7247 178.396 28.5887V31.7605C178.908 31.8965 179.591 32.0009 180.34 32.0009C184.366 32.0009 186.276 30.6695 187.914 26.2707L194.6 8.19141H190.574Z" fill="white"/>
<path d="M131.108 6.02518C132.427 6.02518 133.496 4.95622 133.496 3.63759C133.496 2.31896 132.427 1.25 131.108 1.25C129.79 1.25 128.721 2.31896 128.721 3.63759C128.721 4.95622 129.79 6.02518 131.108 6.02518Z" fill="white"/>
<defs>
<linearGradient id="paint0_linear_237_320" x1="33.8689" y1="7.0063" x2="49.7882" y2="16.1961" gradientUnits="userSpaceOnUse">
<stop stop-color="#BF6517"/>
<stop offset="0.42" stop-color="#BC6317"/>
<stop offset="0.67" stop-color="#B45D19"/>
<stop offset="0.88" stop-color="#A5531C"/>
<stop offset="1" stop-color="#994B1F"/>
</linearGradient>
<linearGradient id="paint1_linear_237_320" x1="43.8883" y1="12.6231" x2="49.8588" y2="16.07" gradientUnits="userSpaceOnUse">
<stop stop-color="#FFAA00"/>
<stop offset="0.42" stop-color="#FCA700"/>
<stop offset="0.67" stop-color="#F4A000"/>
<stop offset="0.88" stop-color="#E59400"/>
<stop offset="1" stop-color="#D98A00"/>
</linearGradient>
</defs>
</svg>
